<svg xmlns="http://www.w3.org/2000/svg" xmlns:xlink="http://www.w3.org/1999/xlink" width="500" zoomAndPan="magnify" viewBox="0 0 375 374.999991" height="500" preserveAspectRatio="xMidYMid meet" version="1.2"><defs><clipPath id="f55eb2f7b7"><path d="M 187.5 0 C 83.945312 0 0 83.945312 0 187.5 C 0 291.054688 83.945312 375 187.5 375 C 291.054688 375 375 291.054688 375 187.5 C 375 83.945312 291.054688 0 187.5 0 Z M 187.5 0 "/></clipPath></defs><g id="f8bdb810e8"><g clip-rule="nonzero" clip-path="url(#f55eb2f7b7)"><rect x="0" width="375" y="0" height="374.999991" style="fill:#b473b2;fill-opacity:1;stroke:none;"/></g><g style="fill:#ffffff;fill-opacity:1;"><g transform="translate(92.396255, 285.712342)"><path style="stroke:none" d="M 148.5 -1.5 C 145.5 -0.894531 142.398438 -0.492188 139.203125 -0.296875 C 136.003906 -0.0976562 132.800781 0 129.59375 0 C 126.394531 0 123.34375 -0.0976562 120.4375 -0.296875 C 117.539062 -0.492188 114.992188 -0.59375 112.796875 -0.59375 L 39.296875 -0.59375 C 34.898438 -0.59375 30.898438 -1.289062 27.296875 -2.6875 C 23.703125 -4.09375 20.800781 -6.894531 18.59375 -11.09375 C 16.59375 -15.09375 16.144531 -18.941406 17.25 -22.640625 C 18.351562 -26.347656 20.101562 -29.898438 22.5 -33.296875 C 37.695312 -54.492188 53.046875 -75.34375 68.546875 -95.84375 C 84.046875 -116.34375 99.5 -137.09375 114.90625 -158.09375 C 115.5 -158.894531 116.195312 -159.695312 117 -160.5 C 117.800781 -161.300781 117.800781 -162.300781 117 -163.5 C 116.394531 -164.5 115.644531 -164.898438 114.75 -164.703125 C 113.851562 -164.503906 112.90625 -164.40625 111.90625 -164.40625 C 102.5 -164.800781 93.144531 -165.097656 83.84375 -165.296875 C 74.550781 -165.492188 65.203125 -165.796875 55.796875 -166.203125 C 51.398438 -166.398438 47.453125 -167.25 43.953125 -168.75 C 40.453125 -170.25 37.703125 -173.195312 35.703125 -177.59375 C 33.898438 -181.800781 33.695312 -185.65625 35.09375 -189.15625 C 36.5 -192.65625 38.601562 -195.90625 41.40625 -198.90625 C 43.40625 -199.5 45.351562 -200.195312 47.25 -201 C 49.144531 -201.800781 51.195312 -202.203125 53.40625 -202.203125 C 70.195312 -201.597656 86.84375 -201.09375 103.34375 -200.6875 C 119.84375 -200.289062 136.394531 -199.59375 153 -198.59375 C 160 -198.195312 164.75 -196.546875 167.25 -193.640625 C 169.75 -190.742188 170.796875 -187.09375 170.390625 -182.6875 C 169.992188 -178.289062 168.492188 -173.492188 165.890625 -168.296875 C 163.296875 -163.097656 160.398438 -158.046875 157.203125 -153.140625 C 154.003906 -148.242188 150.851562 -143.742188 147.75 -139.640625 C 144.644531 -135.546875 142.296875 -132.5 140.703125 -130.5 C 129.703125 -115.300781 118.453125 -100.347656 106.953125 -85.640625 C 95.453125 -70.941406 84.101562 -56.09375 72.90625 -41.09375 C 72.5 -40.5 72.046875 -39.898438 71.546875 -39.296875 C 71.046875 -38.703125 71.195312 -37.800781 72 -36.59375 L 138 -36.59375 C 141.601562 -36.59375 145.203125 -36.296875 148.796875 -35.703125 C 153.398438 -34.703125 157.050781 -32.648438 159.75 -29.546875 C 162.445312 -26.453125 163.796875 -22.800781 163.796875 -18.59375 C 163.796875 -13.394531 162.34375 -9.492188 159.4375 -6.890625 C 156.539062 -4.296875 152.894531 -2.5 148.5 -1.5 Z M 148.5 -1.5 "/></g></g></g></svg>